<svg width="160" height="40" viewBox="0 0 160 40" fill="none" xmlns="http://www.w3.org/2000/svg">
<path d="M40.9154 34.5396H37.4613L39.2839 31.7918H35.7982L39.1382 27.9907H35.7982L37.6846 26.2047H40.71L42.2049 24.5056C30.9636 26.6123 -12.93 13.2535 41.1066 0C41.1066 0 26.0699 1.58914 19.8729 3.43931C9.6889 6.47103 -5.1884 14.6182 1.80598 26.1085C9.09653 38.1072 36.9966 39.0551 36.9966 39.0551L41.5532 34.6999L40.9154 34.5396ZM29.1911 27.1023H32.0344L30.6675 28.2472H27.9836L29.1911 27.1023ZM31.3874 30.418H35.8301L33.7204 32.204H29.501L31.3874 30.418ZM35.3653 36.4906H31.1459L33.0323 34.7045H37.4613L35.3653 36.4906Z" />
<path d="M45.716 33.3858L44.0944 35.2756H50.644L52.2834 33.3858H45.716Z" />
<path d="M49.7637 24.567H44.9012L43.4648 25.8268H48.0868L49.7637 24.567Z" />
<path d="M45.3545 30.8662H49.1281L50.3939 29.6064H46.4212L45.3545 30.8662Z" />
<path d="M40.9449 39.0553H43.5049L44.7245 37.1655H42.0259L40.9449 39.0553Z" />
<path d="M45.984 39.0553H48.5456L49.7636 37.1655H47.0685L45.984 39.0553Z" />
<path d="M43.1851 30.8663L45.3545 27.7167H42.6282L40.3151 30.8663H43.1851Z" />
<path d="M40.2785 6.2015C41.8243 4.97667 43.778 4.34145 45.7725 4.41535C48.7527 4.41535 50.9348 5.21324 52.3186 6.809C53.0149 7.55563 53.4446 8.49985 53.5437 9.50177H49.8033C49.6232 8.91485 49.3029 8.37742 48.868 7.93323C48.2041 7.30765 47.2192 6.99482 45.9131 6.99482C45.3179 6.96883 44.7247 7.07499 44.1785 7.3052C43.6323 7.53541 43.1477 7.88355 42.7615 8.32312C41.9945 9.20861 41.611 10.4613 41.611 12.0812C41.611 13.7012 42.0162 14.9101 42.827 15.7079C43.2279 16.1054 43.7097 16.4178 44.2417 16.6254C44.7737 16.833 45.3444 16.9312 45.9174 16.9138C46.4542 16.9498 46.9921 16.8759 47.4972 16.6971C48.0023 16.5182 48.4632 16.2384 48.8495 15.8757C49.2879 15.394 49.6074 14.822 49.7843 14.2029H53.4876C53.1946 15.7359 52.3186 17.1063 51.0327 18.0426C49.5687 19.0749 47.7871 19.5959 45.9783 19.5205C43.4348 19.5205 41.4349 18.8541 39.9795 17.5213C38.5238 16.1885 37.7959 14.354 37.7959 12.0178C37.7959 9.50632 38.6233 7.56756 40.2785 6.2015Z" />
<path d="M67.6526 17.8665C66.5598 18.9709 64.9007 19.5246 62.6752 19.5276C60.4544 19.5276 58.7921 18.9724 57.7025 17.8665C56.6512 16.795 56.0631 15.3626 56.0631 13.8718C56.0631 12.3811 56.6512 10.9487 57.7025 9.87714C58.7921 8.75322 60.4497 8.18901 62.6752 8.18901C64.9007 8.18901 66.5582 8.75322 67.6526 9.87714C68.7039 10.9487 69.2916 12.3811 69.2916 13.8718C69.2916 15.3626 68.7039 16.795 67.6526 17.8665ZM64.9465 16.3273C65.4646 15.6079 65.7431 14.7474 65.7431 13.865C65.7431 12.9827 65.4646 12.1222 64.9465 11.4028C64.3185 10.8439 63.503 10.5345 62.657 10.5345C61.8111 10.5345 60.9951 10.8439 60.3676 11.4028C59.8462 12.1211 59.5662 12.982 59.5662 13.865C59.5662 14.748 59.8462 15.609 60.3676 16.3273C60.9939 16.8891 61.8103 17.2003 62.657 17.2003C63.5038 17.2003 64.3201 16.8891 64.9465 16.3273Z" />
<path d="M79.7101 8.20747H79.9999V11.1702C79.7883 11.1702 79.5947 11.1373 79.4293 11.1326H79.024C77.6429 11.1326 76.7223 11.5129 76.2618 12.2688C75.9581 12.8778 75.8215 13.5591 75.8661 14.2408V19.5276H72.4408V8.46572H75.6635V10.3861C76.0411 9.80954 76.5071 9.29905 77.0446 8.87421C77.7843 8.39088 78.6528 8.15305 79.5304 8.19341L79.7101 8.20747Z" />
<path d="M93.6087 9.63101C94.6178 10.5753 95.1206 11.9839 95.1178 13.8567C95.1178 15.8177 94.6265 17.3097 93.6435 18.3327C93.1372 18.8508 92.5404 19.2542 91.888 19.5194C91.2356 19.7845 90.5409 19.906 89.8446 19.8766C88.984 19.912 88.1325 19.681 87.3888 19.2109C86.986 18.921 86.6317 18.5585 86.3423 18.1391V23.937H83.1492V8.43647H86.2376V10.0795C86.55 9.63567 86.9272 9.24973 87.3541 8.93694C88.1274 8.42467 89.0211 8.16558 89.9275 8.19098C91.2782 8.15291 92.5926 8.66708 93.6087 9.63101ZM91.1356 11.7226C90.6996 11.0616 89.9883 10.7311 89.0026 10.7311C87.8253 10.7311 87.0137 11.2316 86.569 12.2326C86.3225 12.8718 86.2064 13.5611 86.2289 14.2533C86.2289 15.547 86.6124 16.4551 87.3802 16.9776C87.8687 17.2981 88.4315 17.4618 89.0026 17.4497C89.3928 17.4766 89.783 17.4053 90.1432 17.2415C90.5033 17.0776 90.8236 16.8257 91.0788 16.5054C91.5345 15.81 91.7841 14.9809 91.7944 14.1283C91.8043 13.2758 91.5748 12.44 91.1356 11.732V11.7226Z" />
<path d="M109.227 17.8665C108.137 18.9709 106.48 19.5246 104.254 19.5276C102.029 19.5306 100.369 18.9769 99.2767 17.8665C98.2254 16.7949 97.6377 15.3625 97.6377 13.8718C97.6377 12.3811 98.2254 10.9487 99.2767 9.87714C100.369 8.75172 102.029 8.18901 104.254 8.18901C106.48 8.18901 108.137 8.75172 109.227 9.87714C110.278 10.9487 110.866 12.3811 110.866 13.8718C110.866 15.3625 110.278 16.7949 109.227 17.8665ZM106.521 16.3273C107.039 15.6079 107.318 14.7474 107.318 13.865C107.318 12.9827 107.039 12.1222 106.521 11.4028C105.893 10.8439 105.077 10.5345 104.231 10.5345C103.385 10.5345 102.57 10.8439 101.942 11.4028C101.421 12.1211 101.141 12.982 101.141 13.865C101.141 14.748 101.421 15.609 101.942 16.3273C102.568 16.889 103.384 17.2003 104.231 17.2003C105.078 17.2003 105.894 16.889 106.521 16.3273Z" />
<path d="M121.305 8.20765H121.574V11.1703C121.376 11.1703 121.203 11.1374 121.047 11.1327H120.676C119.425 11.1327 118.581 11.5115 118.146 12.2689C117.867 12.8779 117.742 13.5592 117.783 14.2409V19.5276H114.646V8.46586H117.623V10.3862C117.967 9.80862 118.395 9.29788 118.888 8.87439C119.564 8.39027 120.358 8.15236 121.161 8.19359L121.305 8.20765Z" />
<path d="M129.992 12.6555C130.443 12.6205 130.888 12.5379 131.322 12.4092C131.804 12.2359 132.043 11.9532 132.043 11.6111C132.057 11.4193 132.012 11.2279 131.912 11.0641C131.812 10.9002 131.664 10.7724 131.489 10.6989C130.973 10.5055 130.424 10.4202 129.875 10.4481C129.269 10.3857 128.662 10.5621 128.181 10.9407C127.927 11.213 127.76 11.5563 127.703 11.9258H124.49C124.527 11.0661 124.861 10.2469 125.431 9.60895C126.315 8.66338 127.832 8.19056 129.983 8.19056C131.262 8.16734 132.533 8.40466 133.719 8.88838C134.235 9.09371 134.671 9.46112 134.965 9.93647C135.259 10.4119 135.394 10.9701 135.351 11.529V16.4591C135.351 16.8012 135.351 17.2162 135.373 17.6996C135.366 17.9646 135.435 18.2261 135.572 18.4522C135.707 18.5993 135.875 18.7105 136.063 18.776V19.191H132.457C132.363 18.9965 132.292 18.7913 132.246 18.5798C132.205 18.3883 132.178 18.1694 132.151 17.9277C131.671 18.36 131.134 18.7223 130.555 19.004C129.789 19.3606 128.952 19.5383 128.108 19.5239C127.087 19.5641 126.08 19.2733 125.233 18.6939C124.863 18.4281 124.565 18.0724 124.367 17.6596C124.168 17.2468 124.076 16.79 124.097 16.3315C124.075 15.7218 124.238 15.1199 124.565 14.6069C124.891 14.0939 125.365 13.6946 125.923 13.4627C126.863 13.0728 127.86 12.8403 128.875 12.7741L129.992 12.6555ZM132.029 13.9599C131.823 14.0711 131.608 14.1627 131.385 14.2335C131.089 14.3183 130.788 14.3823 130.484 14.4251L129.726 14.5436C129.201 14.5997 128.685 14.7286 128.194 14.9267C127.958 15.0209 127.757 15.1859 127.617 15.3996C127.476 15.6132 127.404 15.8652 127.41 16.1216C127.393 16.3221 127.428 16.5235 127.512 16.7059C127.596 16.8883 127.725 17.0453 127.888 17.1615C128.239 17.3815 128.646 17.4925 129.059 17.4807C129.764 17.4864 130.458 17.3022 131.069 16.9471C131.67 16.5914 131.989 15.9438 132.025 15.0043L132.029 13.9599Z" />
<path d="M137.953 10.6739V8.67208H139.696V5.66939H142.882V8.67208H144.882V10.6739H142.877V16.3822C142.877 16.8392 142.943 17.0997 143.069 17.2094C143.444 17.3594 143.847 17.4142 144.246 17.3694H144.555C144.664 17.3694 144.773 17.3694 144.878 17.3694V19.4717L143.352 19.522C141.83 19.5677 140.79 19.3377 140.232 18.8319C140.035 18.6371 139.884 18.397 139.791 18.1304C139.698 17.8639 139.666 17.5783 139.696 17.2963V10.6739H137.953Z" />
<path d="M156.671 8.68565C157.533 8.99821 158.293 9.54405 158.868 10.2634C159.39 10.8981 159.738 11.6592 159.879 12.4715C159.981 13.1738 160.019 13.884 159.991 14.5933H150.749C150.735 15.059 150.852 15.5193 151.086 15.9206C151.321 16.3219 151.664 16.6477 152.074 16.8603C152.644 17.1411 153.273 17.278 153.908 17.2593C154.556 17.2886 155.199 17.1178 155.75 16.7696C156.025 16.5752 156.258 16.3251 156.433 16.0351H159.825C159.654 16.8057 159.218 17.49 158.594 17.9666C157.459 19.0033 155.865 19.5232 153.813 19.5262C152.225 19.5558 150.666 19.0972 149.342 18.2114C148.048 17.3379 147.401 15.9127 147.401 13.9359C147.401 12.0861 147.985 10.667 149.154 9.67857C150.441 8.64794 152.055 8.1214 153.696 8.19597C154.709 8.17756 155.716 8.34344 156.671 8.68565ZM151.706 11.0977C151.219 11.5208 150.9 12.1067 150.807 12.748H156.527C156.514 12.4164 156.427 12.0921 156.271 11.7999C156.115 11.5076 155.895 11.255 155.628 11.0614C155.049 10.6641 154.36 10.4624 153.66 10.4856C152.957 10.4463 152.263 10.6636 151.706 11.0977Z" />
<path d="M76.7835 34.2938C76.8154 34.7255 76.9489 35.1438 77.1729 35.515C77.3782 35.8439 77.6551 36.1226 77.9833 36.3306C78.336 36.546 78.7234 36.6986 79.129 36.7812C79.5844 36.8776 80.0488 36.9245 80.5145 36.9208C81.0196 36.9299 81.5239 36.8707 82.0132 36.7451C82.3829 36.6474 82.7316 36.4824 83.0409 36.2585C83.2838 36.0761 83.4804 35.8397 83.6147 35.5682C83.7494 35.2967 83.8177 34.9976 83.8154 34.6949C83.8323 34.3245 83.7099 33.9612 83.471 33.6765C83.2186 33.4026 82.9098 33.1859 82.5654 33.0411C82.159 32.867 81.7356 32.7342 81.3024 32.6446C80.8268 32.5454 80.3423 32.4508 79.8442 32.3562C79.3462 32.2616 78.8573 32.1489 78.3818 32.0182C77.9402 31.9023 77.5165 31.7264 77.1231 31.4955C76.7594 31.2866 76.4493 30.9966 76.2175 30.6484C75.9738 30.2568 75.8542 29.8016 75.8731 29.3416C75.8751 28.9649 75.9715 28.5946 76.1539 28.2646C76.3569 27.8974 76.6401 27.5801 76.9825 27.3364C77.3948 27.0465 77.8545 26.8301 78.3411 26.6965C78.9631 26.527 79.6069 26.4466 80.2518 26.4577C80.9007 26.4467 81.5476 26.5317 82.1716 26.71C82.6641 26.8541 83.125 27.0895 83.5298 27.4039C83.8758 27.68 84.153 28.0315 84.3406 28.4314C84.5215 28.8195 84.6143 29.2426 84.6123 29.6705H83.4394C83.45 29.3004 83.3592 28.9344 83.1767 28.6116C83.0045 28.3119 82.7605 28.0595 82.4658 27.8771C82.1495 27.6809 81.802 27.5392 81.4382 27.458C81.0476 27.3671 80.6479 27.3217 80.2471 27.3229C79.7139 27.3097 79.1815 27.3827 78.6717 27.5392C78.2969 27.6555 77.9501 27.8472 77.6527 28.1024C77.4335 28.3142 77.2712 28.5777 77.182 28.8685C77.0828 29.1368 77.0643 29.4279 77.1274 29.7066C77.1898 30.0365 77.368 30.3335 77.6302 30.5447C77.924 30.7682 78.253 30.9419 78.6037 31.0584C79.0184 31.2005 79.4442 31.3105 79.8758 31.3874L81.2885 31.6577C81.7688 31.7523 82.2348 31.865 82.6878 31.9912C83.1096 32.1104 83.5132 32.2863 83.8876 32.5139C84.2285 32.7289 84.5148 33.0187 84.7253 33.3611C84.9465 33.7555 85.0547 34.2029 85.0377 34.6543C85.0543 35.1149 84.948 35.5716 84.73 35.9783C84.5124 36.385 84.1906 36.7272 83.7972 36.9705C82.967 37.5202 81.8004 37.795 80.2972 37.795C79.6657 37.7997 79.0362 37.7271 78.4225 37.5788C77.8885 37.4514 77.3822 37.2285 76.9284 36.9208C76.5011 36.6307 76.1543 36.2377 75.9209 35.7783C75.6875 35.319 75.5745 34.8083 75.5927 34.2938H76.7835Z" />
<path d="M91.9481 37.7951C91.3659 37.7906 90.7877 37.6924 90.2336 37.5037C89.7246 37.3327 89.2538 37.0533 88.851 36.6831C88.4442 36.3053 88.1219 35.8377 87.9063 35.3136C87.6614 34.6993 87.5437 34.0372 87.5607 33.3712C87.5544 32.7873 87.6464 32.2069 87.8324 31.6569C88.0101 31.1357 88.2913 30.6605 88.6574 30.2632C89.0496 29.8491 89.5208 29.5279 90.0401 29.3211C91.2937 28.8615 92.6582 28.8615 93.9117 29.3211C94.4287 29.5281 94.8995 29.8456 95.2944 30.2536C95.6597 30.6497 95.9382 31.1254 96.11 31.6473C96.2893 32.2023 96.3797 32.7849 96.3773 33.3712C96.3852 33.989 96.2786 34.6025 96.0641 35.1776C95.8655 35.7009 95.5618 36.173 95.1743 36.5616C94.777 36.9568 94.3063 37.261 93.7917 37.4552C93.202 37.6863 92.5772 37.8015 91.9481 37.7951ZM95.1743 33.3955C95.1759 32.9272 95.1139 32.4612 94.9903 32.0115C94.8758 31.5998 94.6811 31.2177 94.4188 30.8897C94.1479 30.5626 93.8086 30.3064 93.4275 30.1418C92.9552 29.9479 92.4504 29.8555 91.9437 29.8699C91.4358 29.8554 90.9315 29.9564 90.4643 30.1662C90.0796 30.3467 89.7388 30.6174 89.4686 30.9577C89.2088 31.2894 89.0145 31.6724 88.8972 32.0843C88.7755 32.5095 88.7131 32.9513 88.7127 33.3955C88.7096 33.8803 88.7814 34.3624 88.9248 34.8231C89.0555 35.2367 89.2637 35.6183 89.5378 35.9449C89.819 36.2623 90.1637 36.5095 90.5472 36.6684C90.9884 36.8451 91.4576 36.9324 91.9299 36.9259C92.4358 36.9389 92.9386 36.8379 93.4046 36.6296C93.7932 36.4492 94.136 36.1747 94.405 35.8284C94.6625 35.4953 94.8568 35.1127 94.9765 34.7017C95.1044 34.2792 95.1732 33.839 95.1791 33.3955H95.1743Z" />
<path d="M100.157 37.1653V26.4567H101.417V37.1653H100.157Z" />
<path d="M111.652 29.6064H112.756V37.5623H111.652V36.4562C111.504 36.6012 111.338 36.7555 111.153 36.919C110.959 37.0825 110.746 37.2237 110.521 37.3402C110.255 37.4792 109.975 37.5879 109.685 37.6641C109.325 37.7563 108.953 37.7999 108.581 37.7938C108.04 37.8077 107.501 37.7326 106.984 37.5716C106.595 37.4471 106.239 37.235 105.945 36.9514C105.685 36.6914 105.489 36.3745 105.372 36.0258C105.252 35.6504 105.193 35.2582 105.197 34.864V29.6064H106.3V34.827C106.28 35.1149 106.321 35.4037 106.42 35.6748C106.519 35.9459 106.673 36.1932 106.873 36.4006C107.406 36.8156 108.076 37.0109 108.748 36.9468C109.166 36.9528 109.582 36.8773 109.971 36.7246C110.322 36.5887 110.638 36.3751 110.895 36.0998C111.143 35.8317 111.336 35.5172 111.463 35.1742C111.601 34.785 111.669 34.3746 111.666 33.9616L111.652 29.6064Z" />
<path d="M120.31 37.5994C120.173 37.5994 119.993 37.6567 119.766 37.7139C119.519 37.7677 119.266 37.7933 119.013 37.7903C118.555 37.8226 118.1 37.6964 117.722 37.4323C117.557 37.2678 117.431 37.0676 117.354 36.8468C117.277 36.6262 117.251 36.3907 117.277 36.1582V30.1598H115.905V29.3676H117.277V27.0865H118.408V29.3676H120.234V30.1598H118.408V35.7669C118.408 35.9674 118.408 36.1392 118.408 36.2871C118.416 36.417 118.455 36.5429 118.522 36.6545C118.592 36.7554 118.696 36.828 118.815 36.8597C118.996 36.9054 119.182 36.9262 119.368 36.9218C119.527 36.9228 119.685 36.9117 119.842 36.8884C119.998 36.8884 120.154 36.8406 120.315 36.812L120.31 37.5994Z" />
<path d="M123.465 27.7986V26.4567H124.725V27.7986H123.465ZM123.521 37.1653V29.476H124.645V37.1653H123.521Z" />
<path d="M132.27 37.7951C131.687 37.7902 131.108 37.692 130.552 37.5038C130.043 37.3322 129.573 37.053 129.17 36.6832C128.764 36.3056 128.441 35.8381 128.226 35.3141C127.977 34.701 127.858 34.0384 127.876 33.372C127.871 32.788 127.965 32.2077 128.152 31.6581C128.328 31.1364 128.61 30.661 128.977 30.2646C129.368 29.8494 129.839 29.5282 130.359 29.3227C130.974 29.0787 131.627 28.9617 132.284 28.978C132.947 28.9613 133.607 29.0783 134.228 29.3227C134.745 29.5278 135.217 29.8455 135.61 30.2549C135.978 30.6495 136.258 31.1255 136.43 31.6484C136.607 32.2036 136.696 32.7861 136.692 33.372C136.701 33.9894 136.596 34.6028 136.384 35.1781C136.183 35.7003 135.88 36.1719 135.495 36.5618C135.098 36.957 134.627 37.2611 134.113 37.4552C133.523 37.6863 132.899 37.8015 132.27 37.7951ZM135.495 33.3962C135.496 32.9281 135.434 32.4621 135.31 32.0125C135.196 31.6009 135.002 31.2189 134.739 30.8909C134.469 30.5639 134.13 30.3078 133.749 30.1432C133.277 29.9494 132.772 29.8569 132.266 29.8713C131.758 29.8564 131.254 29.9574 130.787 30.1675C130.401 30.3474 130.059 30.6181 129.787 30.9589C129.527 31.2896 129.335 31.673 129.221 32.0853C128.966 32.9799 128.976 33.9351 129.249 34.8237C129.377 35.2381 129.586 35.6199 129.861 35.9452C130.141 36.2641 130.486 36.5115 130.87 36.6687C131.311 36.8452 131.78 36.9325 132.252 36.926C132.758 36.9382 133.26 36.8372 133.726 36.6298C134.114 36.4495 134.457 36.175 134.726 35.8287C134.983 35.4957 135.177 35.1132 135.297 34.7023C135.425 34.2798 135.493 33.8397 135.499 33.3962H135.495Z" />
<path d="M141.574 37.1655H140.473V29.7965H141.574V30.8296C141.994 30.4834 142.459 30.1868 142.957 29.9466C143.486 29.7079 144.07 29.5917 144.658 29.6079C145.212 29.6033 145.762 29.6815 146.289 29.8394C146.787 29.9949 147.227 30.2789 147.557 30.6582C147.772 30.891 147.913 31.1742 147.967 31.477C148.012 31.7608 148.033 32.0474 148.032 32.3343V37.1569H146.912V32.3557C146.934 32.084 146.896 31.8109 146.798 31.554C146.7 31.297 146.546 31.062 146.345 30.8639C145.804 30.4835 145.13 30.306 144.455 30.3667C144.143 30.3637 143.832 30.4041 143.533 30.4867C143.264 30.5624 143.007 30.6705 142.768 30.8082C142.551 30.9304 142.357 31.0838 142.192 31.2626C142.039 31.4235 141.915 31.6058 141.823 31.8027C141.721 32.0195 141.654 32.2492 141.625 32.4843C141.598 32.7207 141.586 32.9583 141.588 33.1959L141.574 37.1655Z" />
<path d="M152.278 34.9652C152.384 35.582 152.719 36.1303 153.208 36.4919C153.802 36.8229 154.471 36.976 155.143 36.9343C155.499 36.9413 155.854 36.8971 156.199 36.803C156.461 36.7354 156.711 36.6184 156.933 36.4578C157.11 36.3308 157.258 36.1648 157.366 35.9716C157.463 35.794 157.514 35.5929 157.515 35.3882C157.524 35.2067 157.485 35.0261 157.403 34.8659C157.322 34.7056 157.199 34.5719 157.05 34.4791C156.698 34.2531 156.313 34.0889 155.91 33.9928C155.445 33.8762 154.957 33.7838 154.427 33.7011C153.924 33.6277 153.429 33.5056 152.948 33.3365C152.524 33.198 152.134 32.9621 151.809 32.6461C151.65 32.4794 151.527 32.28 151.447 32.0606C151.367 31.8412 151.332 31.6068 151.343 31.3723C151.341 31.0316 151.421 30.6957 151.574 30.3952C151.728 30.0946 151.95 29.8389 152.223 29.6511C152.966 29.161 153.838 28.928 154.715 28.985C155.593 28.9444 156.466 29.1528 157.24 29.588C157.573 29.8066 157.852 30.1032 158.057 30.4542C158.261 30.8052 158.384 31.2011 158.417 31.6105H157.329C157.303 31.3296 157.214 31.0592 157.067 30.8221C156.921 30.5852 156.722 30.3886 156.487 30.2492C155.944 29.9675 155.344 29.8322 154.738 29.8553C154.175 29.8187 153.614 29.9556 153.125 30.2492C152.954 30.3581 152.814 30.5111 152.717 30.6934C152.62 30.8757 152.57 31.081 152.571 31.2896C152.567 31.4642 152.608 31.6367 152.69 31.789C152.772 31.9413 152.892 32.0677 153.036 32.155C153.388 32.3778 153.771 32.5418 154.171 32.6412C154.636 32.7628 155.101 32.8746 155.655 32.9718C156.159 33.061 156.654 33.1994 157.133 33.3851C157.557 33.5376 157.945 33.7811 158.273 34.0998C158.431 34.2638 158.553 34.4607 158.634 34.6777C158.713 34.8946 158.749 35.1268 158.738 35.3591C158.745 35.7344 158.641 36.1028 158.44 36.4141C158.232 36.7343 157.952 36.9977 157.626 37.1823C157.241 37.4024 156.825 37.5582 156.394 37.6441C155.879 37.7494 155.356 37.7999 154.831 37.7948C154.32 37.8033 153.81 37.7296 153.32 37.5761C152.914 37.4477 152.535 37.2435 152.199 36.9732C151.903 36.7311 151.659 36.4261 151.484 36.0783C151.308 35.7306 151.205 35.3479 151.181 34.9555L152.278 34.9652Z" />
</svg>
